# xmcd
#
# Track frame offsets:
#	150
#	22225
#	42012
#	60500
#	72200
#	92212
#	103325
#	120050
#	141800
#	156600
#	173500
#	187225
#	200875
#	220712
#	235800
#	259475
#	277125
#	296675
#	314450
#
# Disc length: 4450
#
# Revision: 4
# Processed by: cddbd v1.5.1PL0 Copyright (c) Steve Scherf et al.
# Submitted via: CDex 1.51
# Normalized: r3:TDELIM( - )
#
DISCID=2d116013
DTITLE=Romantic Collection - Golden, Disc 2
DYEAR=1900
DGENRE=misc
TTITLE0=ABBA - The Winner Takes It All
TTITLE1=Richard Marx - Hold On To The Nights
TTITLE2=Amanda Lear - Una Rosa Un Tango
TTITLE3=The Platters - Sixteen Tons
TTITLE4=James Last - Lonesome Shepherd
TTITLE5=Far Corporation - Stairway To Haven
TTITLE6=Status QUO - In The Army Now
TTITLE7=Foreigner - Waiting For A Girl Like You
TTITLE8=Fausto Papetti - Theeme From Paradise
TTITLE9=Gloria Gaynor - I Will Survive
TTITLE10=Roy Orbison - Oh, Pretty Woman
TTITLE11=Rafaella Carra - Tango
TTITLE12=James Last and Richard Clayderman - Reflections
TTITLE13=Joe Dassin - Salut
TTITLE14=Mylene Farmer - Regreti
TTITLE15=Julio Iglesias - Nostalgie
TTITLE16=Candy Dulfer - Lily Was Here
TTITLE17=Cliff Richard - Miss You Nights
TTITLE18=London Symphony Orchestra - The Winer Takes It All
EXTD=
EXTT0=
EXTT1=
EXTT2=
EXTT3=
EXTT4=
EXTT5=
EXTT6=
EXTT7=
EXTT8=
EXTT9=
EXTT10=
EXTT11=
EXTT12=
EXTT13=
EXTT14=
EXTT15=
EXTT16=
EXTT17=
EXTT18=
PLAYORDER=
